# xmcd
#
# Track frame offsets: 
#        300
#        14379
#        29020
#        47031
#        63740
#        79195
#        94823
#        111894
#        130589
#        149391
#        168447
#        175080
#
# Disc length: 2608 seconds
#
# Revision: 0
# Processed by: cddbd v1.5.2PL0 Copyright (c) Steve Scherf et al.
# Submitted via: ExactAudioCopy v0.99pb5
#
DISCID=a50a2c0c
DTITLE=Erja Lyytinen - Dreamland Blues
DYEAR=2006
DGENRE=General Blues
TTITLE0=Skinny Girl
TTITLE1=Why A Woman Plays The Blues
TTITLE2=Best For You
TTITLE3=It Hurts Me Too
TTITLE4=Mississippi Callin'
TTITLE5=I Need Love (To Get Over You)
TTITLE6=Good Lovin' Man
TTITLE7=Dreamland Blues
TTITLE8=Nasty Weather
TTITLE9=Join Everyone
TTITLE10=Voyager's Rest
TTITLE11=Lady
EXTD=
EXTT0=
EXTT1=
EXTT2=
EXTT3=
EXTT4=
EXTT5=
EXTT6=
EXTT7=
EXTT8=
EXTT9=
EXTT10=
EXTT11=
PLAYORDER=
